<?xml version="1.0" ?><svg enable-background="new 0 0 52 52" id="Layer_1" version="1.1" viewBox="0 0 52 52" xml:space="preserve" xmlns="http://www.w3.org/2000/svg" xmlns:xlink="http://www.w3.org/1999/xlink"><path d="M26,2C12.7699585,2,2,12.7700195,2,26s10.7699585,24,24,24c13.2299805,0,24-10.7700195,24-24S39.2299805,2,26,2z M26,34  c-4.4100342,0-8-3.5900269-8-8s3.5899658-8,8-8c4.4099731,0,8,3.5900269,8,8S30.4099731,34,26,34z M41.0015259,26  c0-8.2709961-6.7290039-15-15-15V9c9.3740234,0,17,7.6259766,17,17H41.0015259z"/></svg>